<?xml version="1.0" encoding="UTF-8"?>
<!DOCTYPE svg PUBLIC "-//W3C//DTD SVG 1.1//EN" "http://www.w3.org/Graphics/SVG/1.1/DTD/svg11.dtd">
<svg xmlns="http://www.w3.org/2000/svg" version="1.1" width="32px" height="32px" style="shape-rendering:geometricPrecision; text-rendering:geometricPrecision; image-rendering:optimizeQuality; fill-rule:evenodd; clip-rule:evenodd" xmlns:xlink="http://www.w3.org/1999/xlink">
<g><path style="opacity:0.9" fill="#ff0b06" d="M 9.5,-0.5 C 13.5,-0.5 17.5,-0.5 21.5,-0.5C 25.8333,1.83333 29.1667,5.16667 31.5,9.5C 31.5,13.5 31.5,17.5 31.5,21.5C 29.1667,25.8333 25.8333,29.1667 21.5,31.5C 17.5,31.5 13.5,31.5 9.5,31.5C 5.16667,29.1667 1.83333,25.8333 -0.5,21.5C -0.5,17.5 -0.5,13.5 -0.5,9.5C 1.83333,5.16667 5.16667,1.83333 9.5,-0.5 Z"/></g>
<g><path style="opacity:1" fill="#ffeeed" d="M 2.5,8.5 C 5.51838,8.33537 8.51838,8.50204 11.5,9C 14.1667,11 14.1667,13 11.5,15C 15.5,17.3333 15.5,19.6667 11.5,22C 8.51838,22.498 5.51838,22.6646 2.5,22.5C 2.5,17.8333 2.5,13.1667 2.5,8.5 Z"/></g>
<g><path style="opacity:1" fill="#ffecec" d="M 16.5,8.5 C 27.3614,7.16653 30.6947,11.3332 26.5,21C 23.3117,22.3158 19.9783,22.8158 16.5,22.5C 16.5,17.8333 16.5,13.1667 16.5,8.5 Z"/></g>
<g><path style="opacity:1" fill="#ff3c2f" d="M 4.5,10.5 C 6.97747,10.0508 8.97747,10.7175 10.5,12.5C 8.97747,14.2825 6.97747,14.9492 4.5,14.5C 4.5,13.1667 4.5,11.8333 4.5,10.5 Z"/></g>
<g><path style="opacity:1" fill="#ff1f15" d="M 19.5,10.5 C 23.3382,10.0072 25.3382,11.6738 25.5,15.5C 25.3382,19.3262 23.3382,20.9928 19.5,20.5C 19.5,17.1667 19.5,13.8333 19.5,10.5 Z"/></g>
<g><path style="opacity:1" fill="#ff2d21" d="M 4.5,16.5 C 6.5273,16.3379 8.5273,16.5045 10.5,17C 11.8333,18 11.8333,19 10.5,20C 8.5273,20.4955 6.5273,20.6621 4.5,20.5C 4.5,19.1667 4.5,17.8333 4.5,16.5 Z"/></g>
</svg>
